<svg xmlns:xlink="http://www.w3.org/1999/xlink" width="58.681ex" height="2.843ex" style="vertical-align: -1.005ex;" viewBox="0 -791.3 25265.5 1223.9" role="img" focusable="false" xmlns="http://www.w3.org/2000/svg" aria-labelledby="MathJax-SVG-1-Title">
<title id="MathJax-SVG-1-Title">\text{BERT}_{\text{Large}}\approx340\text{M} \quad \text{GPT-3}approx175\text{B} \quad \text{GPT-4}approx?</title>
<defs aria-hidden="true">
<path stroke-width="1" id="E1-MJMAIN-42" d="M131 622Q124 629 120 631T104 634T61 637H28V683H229H267H346Q423 683 459 678T531 651Q574 627 599 590T624 512Q624 461 583 419T476 360L466 357Q539 348 595 302T651 187Q651 119 600 67T469 3Q456 1 242 0H28V46H61Q103 47 112 49T131 61V622ZM511 513Q511 560 485 594T416 636Q415 636 403 636T371 636T333 637Q266 637 251 636T232 628Q229 624 229 499V374H312L396 375L406 377Q410 378 417 380T442 393T474 417T499 456T511 513ZM537 188Q537 239 509 282T430 336L329 337H229V200V116Q229 57 234 52Q240 47 334 47H383Q425 47 443 53Q486 67 511 104T537 188Z"></path>
<path stroke-width="1" id="E1-MJMAIN-45" d="M128 619Q121 626 117 628T101 631T58 634H25V680H597V676Q599 670 611 560T625 444V440H585V444Q584 447 582 465Q578 500 570 526T553 571T528 601T498 619T457 629T411 633T353 634Q266 634 251 633T233 622Q233 622 233 621Q232 619 232 497V376H286Q359 378 377 385Q413 401 416 469Q416 471 416 473V493H456V213H416V233Q415 268 408 288T383 317T349 328T297 330Q290 330 286 330H232V196V114Q232 57 237 52Q243 47 289 47H340H391Q428 47 452 50T505 62T552 92T584 146Q594 172 599 200T607 247T612 270V273H652V270Q651 267 632 137T610 3V0H25V46H58Q100 47 109 49T128 61V619Z"></path>
<path stroke-width="1" id="E1-MJMAIN-52" d="M130 622Q123 629 119 631T103 634T60 637H27V683H202H236H300Q376 683 417 677T500 648Q595 600 609 517Q610 512 610 501Q610 468 594 439T556 392T511 361T472 343L456 338Q459 335 467 332Q497 316 516 298T545 254T559 211T568 155T578 94Q588 46 602 31T640 16H645Q660 16 674 32T692 87Q692 98 696 101T712 105T728 103T732 90Q732 59 716 27T672 -16Q656 -22 630 -22Q481 -16 458 90Q456 101 456 163T449 246Q430 304 373 320L363 322L297 323H231V192L232 61Q238 51 249 49T301 46H334V0H323Q302 3 181 3Q59 3 38 0H27V46H60Q102 47 111 49T130 61V622ZM491 499V509Q491 527 490 539T481 570T462 601T424 623T362 636Q360 636 340 636T304 637H283Q238 637 234 628Q231 624 231 492V360H289Q390 360 434 378T489 456Q491 467 491 499Z"></path>
<path stroke-width="1" id="E1-MJMAIN-54" d="M36 443Q37 448 46 558T55 671V677H666V671Q667 666 676 556T685 443V437H645V443Q645 445 642 478T631 544T610 593Q593 614 555 625Q534 630 478 630H451H443Q417 630 414 618Q413 616 413 339V63Q420 53 439 50T528 46H558V0H545L361 3Q186 1 177 0H164V46H194Q264 46 283 49T309 63V339V550Q309 620 304 625T271 630H244H224Q154 630 119 601Q101 585 93 554T81 486T76 443V437H36V443Z"></path>
<path stroke-width="1" id="E1-MJMAIN-4C" d="M128 622Q121 629 117 631T101 634T58 637H25V683H36Q48 680 182 680Q324 680 348 683H360V637H333Q273 637 258 635T233 622L232 342V129Q232 57 237 52Q243 47 313 47Q384 47 410 53Q470 70 498 110T536 221Q536 226 537 238T540 261T542 272T562 273H582V268Q580 265 568 137T554 5V0H25V46H58Q100 47 109 49T128 61V622Z"></path>
<path stroke-width="1" id="E1-MJMAIN-61" d="M137 305T115 305T78 320T63 359Q63 394 97 421T218 448Q291 448 336 416T396 340Q401 326 401 309T402 194V124Q402 76 407 58T428 40Q443 40 448 56T453 109V145H493V106Q492 66 490 59Q481 29 455 12T400 -6T353 12T329 54V58L327 55Q325 52 322 49T314 40T302 29T287 17T269 6T247 -2T221 -8T190 -11Q130 -11 82 20T34 107Q34 128 41 147T68 188T116 225T194 253T304 268H318V290Q318 324 312 340Q290 411 215 411Q197 411 181 410T156 406T148 403Q170 388 170 359Q170 334 154 320ZM126 106Q126 75 150 51T209 26Q247 26 276 49T315 109Q317 116 318 175Q318 233 317 233Q309 233 296 232T251 223T193 203T147 166T126 106Z"></path>
<path stroke-width="1" id="E1-MJMAIN-72" d="M36 46H50Q89 46 97 60V68Q97 77 97 91T98 122T98 161T98 203Q98 234 98 269T98 328L97 351Q94 370 83 376T38 385H20V408Q20 431 22 431L32 432Q42 433 60 434T96 436Q112 437 131 438T160 441T171 442H174V373Q213 441 271 441H277Q322 441 343 419T364 373Q364 352 351 337T313 322Q288 322 276 338T263 372Q263 381 265 388T270 400T273 405Q271 407 250 401Q234 393 226 386Q179 341 179 207V154Q179 141 179 127T179 101T180 81T180 66V61Q181 59 183 57T188 54T193 51T200 49T207 48T216 47T225 47T235 46T245 46H276V0H267Q249 3 140 3Q37 3 28 0H20V46H36Z"></path>
<path stroke-width="1" id="E1-MJMAIN-67" d="M329 409Q373 453 429 453Q459 453 472 434T485 396Q485 382 476 371T449 360Q416 360 412 390Q410 404 415 411Q415 412 416 414V415Q388 412 363 393Q355 388 355 386Q355 385 359 381T368 369T379 351T388 325T392 292Q392 230 343 187T222 143Q172 143 123 171Q112 153 112 133Q112 98 138 81Q147 75 155 75T227 73Q311 72 335 67Q396 58 431 26Q470 -13 470 -72Q470 -139 392 -175Q332 -206 250 -206Q167 -206 107 -175Q29 -140 29 -75Q29 -39 50 -15T92 18L103 24Q67 55 67 108Q67 155 96 193Q52 237 52 292Q52 355 102 398T223 442Q274 442 318 416L329 409ZM299 343Q294 371 273 387T221 404Q192 404 171 388T145 343Q142 326 142 292Q142 248 149 227T179 192Q196 182 222 182Q244 182 260 189T283 207T294 227T299 242Q302 258 302 292T299 343ZM403 -75Q403 -50 389 -34T348 -11T299 -2T245 0H218Q151 0 138 -6Q118 -15 107 -34T95 -74Q95 -84 101 -97T122 -127T170 -155T250 -167Q319 -167 361 -139T403 -75Z"></path>
<path stroke-width="1" id="E1-MJMAIN-65" d="M28 218Q28 273 48 318T98 391T163 433T229 448Q282 448 320 430T378 380T406 316T415 245Q415 238 408 231H126V216Q126 68 226 36Q246 30 270 30Q312 30 342 62Q359 79 369 104L379 128Q382 131 395 131H398Q415 131 415 121Q415 117 412 108Q393 53 349 21T250 -11Q155 -11 92 58T28 218ZM333 275Q322 403 238 411H236Q228 411 220 410T195 402T166 381T143 340T127 274V267H333V275Z"></path>
<path stroke-width="1" id="E1-MJMAIN-2248" d="M55 319Q55 360 72 393T114 444T163 472T205 482Q207 482 213 482T223 483Q262 483 296 468T393 413L443 381Q502 346 553 346Q609 346 649 375T694 454Q694 465 698 474T708 483Q722 483 722 452Q722 386 675 338T555 289Q514 289 468 310T388 357T308 404T224 426Q164 426 125 393T83 318Q81 289 69 289Q55 289 55 319ZM55 85Q55 126 72 159T114 210T163 238T205 248Q207 248 213 248T223 249Q262 249 296 234T393 179L443 147Q502 112 553 112Q609 112 649 141T694 220Q694 249 708 249T722 217Q722 153 675 104T555 55Q514 55 468 76T388 123T308 170T224 192Q164 192 125 159T83 84Q80 55 69 55Q55 55 55 85Z"></path>
<path stroke-width="1" id="E1-MJMAIN-33" d="M127 463Q100 463 85 480T69 524Q69 579 117 622T233 665Q268 665 277 664Q351 652 390 611T430 522Q430 470 396 421T302 350L299 348Q299 347 308 345T337 336T375 315Q457 262 457 175Q457 96 395 37T238 -22Q158 -22 100 21T42 130Q42 158 60 175T105 193Q133 193 151 175T169 130Q169 119 166 110T159 94T148 82T136 74T126 70T118 67L114 66Q165 21 238 21Q293 21 321 74Q338 107 338 175V195Q338 290 274 322Q259 328 213 329L171 330L168 332Q166 335 166 348Q166 366 174 366Q202 366 232 371Q266 376 294 413T322 525V533Q322 590 287 612Q265 626 240 626Q208 626 181 615T143 592T132 580H135Q138 579 143 578T153 573T165 566T175 555T183 540T186 520Q186 498 172 481T127 463Z"></path>
<path stroke-width="1" id="E1-MJMAIN-34" d="M462 0Q444 3 333 3Q217 3 199 0H190V46H221Q241 46 248 46T265 48T279 53T286 61Q287 63 287 115V165H28V211L179 442Q332 674 334 675Q336 677 355 677H373L379 671V211H471V165H379V114Q379 73 379 66T385 54Q393 47 442 46H471V0H462ZM293 211V545L74 212L183 211H293Z"></path>
<path stroke-width="1" id="E1-MJMAIN-30" d="M96 585Q152 666 249 666Q297 666 345 640T423 548Q460 465 460 320Q460 165 417 83Q397 41 362 16T301 -15T250 -22Q224 -22 198 -16T137 16T82 83Q39 165 39 320Q39 494 96 585ZM321 597Q291 629 250 629Q208 629 178 597Q153 571 145 525T137 333Q137 175 145 125T181 46Q209 16 250 16Q290 16 318 46Q347 76 354 130T362 333Q362 478 354 524T321 597Z"></path>
<path stroke-width="1" id="E1-MJMAIN-4D" d="M132 622Q125 629 121 631T105 634T62 637H29V683H135Q221 683 232 682T249 675Q250 674 354 398L458 124L562 398Q666 674 668 675Q671 681 683 682T781 683H887V637H854Q814 636 803 634T785 622V61Q791 51 802 49T854 46H887V0H876Q855 3 736 3Q605 3 596 0H585V46H618Q660 47 669 49T688 61V347Q688 424 688 461T688 546T688 613L687 632Q454 14 450 7Q446 1 430 1T410 7Q409 9 292 316L176 624V606Q175 588 175 543T175 463T175 356L176 86Q187 50 261 46H278V0H269Q254 3 154 3Q52 3 37 0H29V46H46Q78 48 98 56T122 69T132 86V622Z"></path>
<path stroke-width="1" id="E1-MJMAIN-47" d="M56 342Q56 428 89 500T174 615T283 681T391 705Q394 705 400 705T408 704Q499 704 569 636L582 624L612 663Q639 700 643 704Q644 704 647 704T653 705H657Q660 705 666 699V419L660 413H626Q620 419 619 430Q610 512 571 572T476 651Q457 658 426 658Q401 658 376 654T316 633T254 592T205 519T177 411Q173 369 173 335Q173 259 192 201T238 111T302 58T370 31T431 24Q478 24 513 45T559 100Q562 110 562 160V212Q561 213 557 216T551 220T542 223T526 225T502 226T463 227H437V273H449L609 270Q715 270 727 273H735V227H721Q674 227 668 215Q666 211 666 108V6Q660 0 657 0Q653 0 639 10Q617 25 600 42L587 54Q571 27 524 3T406 -22Q317 -22 238 22T108 151T56 342Z"></path>
<path stroke-width="1" id="E1-MJMAIN-50" d="M130 622Q123 629 119 631T103 634T60 637H27V683H214Q237 683 276 683T331 684Q419 684 471 671T567 616Q624 563 624 489Q624 421 573 372T451 307Q429 302 328 301H234V181Q234 62 237 58Q245 47 304 46H337V0H326Q305 3 182 3Q47 3 38 0H27V46H60Q102 47 111 49T130 61V622ZM507 488Q507 514 506 528T500 564T483 597T450 620T397 635Q385 637 307 637H286Q237 637 234 628Q231 624 231 483V342H302H339Q390 342 423 349T481 382Q507 411 507 488Z"></path>
<path stroke-width="1" id="E1-MJMAIN-2D" d="M11 179V252H277V179H11Z"></path>
<path stroke-width="1" id="E1-MJMATHI-61" d="M33 157Q33 258 109 349T280 441Q331 441 370 392Q386 422 416 422Q429 422 439 414T449 394Q449 381 412 234T374 68Q374 43 381 35T402 26Q411 27 422 35Q443 55 463 131Q469 151 473 152Q475 153 483 153H487Q506 153 506 144Q506 138 501 117T481 63T449 13Q436 0 417 -8Q409 -10 393 -10Q359 -10 336 5T306 36L300 51Q299 52 296 50Q294 48 292 46Q233 -10 172 -10Q117 -10 75 30T33 157ZM351 328Q351 334 346 350T323 385T277 405Q242 405 210 374T160 293Q131 214 119 129Q119 126 119 118T118 106Q118 61 136 44T179 26Q217 26 254 59T298 110Q300 114 325 217T351 328Z"></path>
<path stroke-width="1" id="E1-MJMATHI-70" d="M23 287Q24 290 25 295T30 317T40 348T55 381T75 411T101 433T134 442Q209 442 230 378L240 387Q302 442 358 442Q423 442 460 395T497 281Q497 173 421 82T249 -10Q227 -10 210 -4Q199 1 187 11T168 28L161 36Q160 35 139 -51T118 -138Q118 -144 126 -145T163 -148H188Q194 -155 194 -157T191 -175Q188 -187 185 -190T172 -194Q170 -194 161 -194T127 -193T65 -192Q-5 -192 -24 -194H-32Q-39 -187 -39 -183Q-37 -156 -26 -148H-6Q28 -147 33 -136Q36 -130 94 103T155 350Q156 355 156 364Q156 405 131 405Q109 405 94 377T71 316T59 280Q57 278 43 278H29Q23 284 23 287ZM178 102Q200 26 252 26Q282 26 310 49T356 107Q374 141 392 215T411 325V331Q411 405 350 405Q339 405 328 402T306 393T286 380T269 365T254 350T243 336T235 326L232 322Q232 321 229 308T218 264T204 212Q178 106 178 102Z"></path>
<path stroke-width="1" id="E1-MJMATHI-72" d="M21 287Q22 290 23 295T28 317T38 348T53 381T73 411T99 433T132 442Q161 442 183 430T214 408T225 388Q227 382 228 382T236 389Q284 441 347 441H350Q398 441 422 400Q430 381 430 363Q430 333 417 315T391 292T366 288Q346 288 334 299T322 328Q322 376 378 392Q356 405 342 405Q286 405 239 331Q229 315 224 298T190 165Q156 25 151 16Q138 -11 108 -11Q95 -11 87 -5T76 7T74 17Q74 30 114 189T154 366Q154 405 128 405Q107 405 92 377T68 316T57 280Q55 278 41 278H27Q21 284 21 287Z"></path>
<path stroke-width="1" id="E1-MJMATHI-6F" d="M201 -11Q126 -11 80 38T34 156Q34 221 64 279T146 380Q222 441 301 441Q333 441 341 440Q354 437 367 433T402 417T438 387T464 338T476 268Q476 161 390 75T201 -11ZM121 120Q121 70 147 48T206 26Q250 26 289 58T351 142Q360 163 374 216T388 308Q388 352 370 375Q346 405 306 405Q243 405 195 347Q158 303 140 230T121 120Z"></path>
<path stroke-width="1" id="E1-MJMATHI-78" d="M52 289Q59 331 106 386T222 442Q257 442 286 424T329 379Q371 442 430 442Q467 442 494 420T522 361Q522 332 508 314T481 292T458 288Q439 288 427 299T415 328Q415 374 465 391Q454 404 425 404Q412 404 406 402Q368 386 350 336Q290 115 290 78Q290 50 306 38T341 26Q378 26 414 59T463 140Q466 150 469 151T485 153H489Q504 153 504 145Q504 144 502 134Q486 77 440 33T333 -11Q263 -11 227 52Q186 -10 133 -10H127Q78 -10 57 16T35 71Q35 103 54 123T99 143Q142 143 142 101Q142 81 130 66T107 46T94 41L91 40Q91 39 97 36T113 29T132 26Q168 26 194 71Q203 87 217 139T245 247T261 313Q266 340 266 352Q266 380 251 392T217 404Q177 404 142 372T93 290Q91 281 88 280T72 278H58Q52 284 52 289Z"></path>
<path stroke-width="1" id="E1-MJMAIN-31" d="M213 578L200 573Q186 568 160 563T102 556H83V602H102Q149 604 189 617T245 641T273 663Q275 666 285 666Q294 666 302 660V361L303 61Q310 54 315 52T339 48T401 46H427V0H416Q395 3 257 3Q121 3 100 0H88V46H114Q136 46 152 46T177 47T193 50T201 52T207 57T213 61V578Z"></path>
<path stroke-width="1" id="E1-MJMAIN-37" d="M55 458Q56 460 72 567L88 674Q88 676 108 676H128V672Q128 662 143 655T195 646T364 644H485V605L417 512Q408 500 387 472T360 435T339 403T319 367T305 330T292 284T284 230T278 162T275 80Q275 66 275 52T274 28V19Q270 2 255 -10T221 -22Q210 -22 200 -19T179 0T168 40Q168 198 265 368Q285 400 349 489L395 552H302Q128 552 119 546Q113 543 108 522T98 479L95 458V455H55V458Z"></path>
<path stroke-width="1" id="E1-MJMAIN-35" d="M164 157Q164 133 148 117T109 101H102Q148 22 224 22Q294 22 326 82Q345 115 345 210Q345 313 318 349Q292 382 260 382H254Q176 382 136 314Q132 307 129 306T114 304Q97 304 95 310Q93 314 93 485V614Q93 664 98 664Q100 666 102 666Q103 666 123 658T178 642T253 634Q324 634 389 662Q397 666 402 666Q410 666 410 648V635Q328 538 205 538Q174 538 149 544L139 546V374Q158 388 169 396T205 412T256 420Q337 420 393 355T449 201Q449 109 385 44T229 -22Q148 -22 99 32T50 154Q50 178 61 192T84 210T107 214Q132 214 148 197T164 157Z"></path>
<path stroke-width="1" id="E1-MJMAIN-3F" d="M226 668Q190 668 162 656T124 632L114 621Q116 621 119 620T130 616T145 607T157 591T162 567Q162 544 147 529T109 514T71 528T55 566Q55 625 100 661T199 704Q201 704 210 704T224 705H228Q281 705 320 692T378 656T407 612T416 567Q416 503 361 462Q267 395 247 303Q242 279 242 241V224Q242 205 239 202T222 198T205 201T202 218V249Q204 320 220 371T255 445T292 491T315 537Q317 546 317 574V587Q317 604 315 615T304 640T277 661T226 668ZM162 61Q162 89 180 105T224 121Q247 119 264 104T281 61Q281 31 264 16T222 1Q197 1 180 16T162 61Z"></path>
</defs>
<g stroke="currentColor" fill="currentColor" stroke-width="0" transform="matrix(1 0 0 -1 0 0)" aria-hidden="true">
 <use xlink:href="#E1-MJMAIN-42"></use>
 <use xlink:href="#E1-MJMAIN-45" x="708" y="0"></use>
 <use xlink:href="#E1-MJMAIN-52" x="1390" y="0"></use>
 <use xlink:href="#E1-MJMAIN-54" x="2126" y="0"></use>
<g transform="translate(2849,-150)">
 <use transform="scale(0.707)" xlink:href="#E1-MJMAIN-4C"></use>
 <use transform="scale(0.707)" xlink:href="#E1-MJMAIN-61" x="625" y="0"></use>
 <use transform="scale(0.707)" xlink:href="#E1-MJMAIN-72" x="1126" y="0"></use>
 <use transform="scale(0.707)" xlink:href="#E1-MJMAIN-67" x="1518" y="0"></use>
 <use transform="scale(0.707)" xlink:href="#E1-MJMAIN-65" x="2019" y="0"></use>
</g>
 <use xlink:href="#E1-MJMAIN-2248" x="4968" y="0"></use>
<g transform="translate(6025,0)">
 <use xlink:href="#E1-MJMAIN-33"></use>
 <use xlink:href="#E1-MJMAIN-34" x="500" y="0"></use>
 <use xlink:href="#E1-MJMAIN-30" x="1001" y="0"></use>
</g>
 <use xlink:href="#E1-MJMAIN-4D" x="7526" y="0"></use>
<g transform="translate(9444,0)">
 <use xlink:href="#E1-MJMAIN-47"></use>
 <use xlink:href="#E1-MJMAIN-50" x="785" y="0"></use>
 <use xlink:href="#E1-MJMAIN-54" x="1467" y="0"></use>
 <use xlink:href="#E1-MJMAIN-2D" x="2189" y="0"></use>
 <use xlink:href="#E1-MJMAIN-33" x="2523" y="0"></use>
</g>
 <use xlink:href="#E1-MJMATHI-61" x="12467" y="0"></use>
 <use xlink:href="#E1-MJMATHI-70" x="12997" y="0"></use>
 <use xlink:href="#E1-MJMATHI-70" x="13500" y="0"></use>
 <use xlink:href="#E1-MJMATHI-72" x="14004" y="0"></use>
 <use xlink:href="#E1-MJMATHI-6F" x="14455" y="0"></use>
 <use xlink:href="#E1-MJMATHI-78" x="14941" y="0"></use>
<g transform="translate(15513,0)">
 <use xlink:href="#E1-MJMAIN-31"></use>
 <use xlink:href="#E1-MJMAIN-37" x="500" y="0"></use>
 <use xlink:href="#E1-MJMAIN-35" x="1001" y="0"></use>
</g>
 <use xlink:href="#E1-MJMAIN-42" x="17015" y="0"></use>
<g transform="translate(18723,0)">
 <use xlink:href="#E1-MJMAIN-47"></use>
 <use xlink:href="#E1-MJMAIN-50" x="785" y="0"></use>
 <use xlink:href="#E1-MJMAIN-54" x="1467" y="0"></use>
 <use xlink:href="#E1-MJMAIN-2D" x="2189" y="0"></use>
 <use xlink:href="#E1-MJMAIN-34" x="2523" y="0"></use>
</g>
 <use xlink:href="#E1-MJMATHI-61" x="21747" y="0"></use>
 <use xlink:href="#E1-MJMATHI-70" x="22276" y="0"></use>
 <use xlink:href="#E1-MJMATHI-70" x="22780" y="0"></use>
 <use xlink:href="#E1-MJMATHI-72" x="23283" y="0"></use>
 <use xlink:href="#E1-MJMATHI-6F" x="23735" y="0"></use>
 <use xlink:href="#E1-MJMATHI-78" x="24220" y="0"></use>
 <use xlink:href="#E1-MJMAIN-3F" x="24793" y="0"></use>
</g>
</svg>